<svg version="1.0" xmlns="http://www.w3.org/2000/svg"
 width="300.000000pt" height="240.000000pt" viewBox="0 0 300.000000 240.000000"
 preserveAspectRatio="xMidYMid meet">
<g transform="translate(0.000000,240.000000) scale(0.100000,-0.100000)"
fill="#000000" stroke="none">
<path d="M1089 2144 c-75 -23 -138 -72 -173 -134 -29 -51 -31 -62 -31 -155 0
-113 -6 -129 -42 -120 l-25 6 21 -30 c22 -31 53 -47 71 -36 14 9 12 -11 -2
-23 -7 -5 -22 -12 -33 -14 -38 -8 42 -40 90 -36 28 2 41 -1 38 -8 -5 -12 27
-24 67 -24 24 0 26 -3 22 -34 -2 -18 3 -46 11 -62 8 -16 12 -45 10 -64 -3 -23
1 -42 12 -55 15 -18 16 -18 11 -2 -18 55 -18 67 -1 73 12 5 30 -7 62 -42 41
-44 47 -39 11 9 -11 15 -12 31 -4 78 7 43 7 62 -2 71 -8 8 -14 5 -22 -16 -6
-18 -15 -26 -24 -23 -8 3 -17 0 -19 -7 -3 -8 4 -11 24 -8 27 4 29 2 29 -31 l0
-34 -34 16 c-19 9 -37 25 -40 36 -9 33 -7 77 4 70 6 -3 10 -2 10 3 0 6 -23 24
-50 42 -28 18 -59 45 -70 60 -11 16 -34 31 -51 35 -64 14 -78 125 -15 125 14
0 28 -4 31 -10 13 -21 35 -10 36 18 0 15 4 36 8 47 8 20 8 20 14 0 16 -48 89
-42 182 15 39 24 81 73 67 78 -8 2 -94 -49 -128 -77 -23 -19 -54 -21 -90 -6
-36 15 -38 14 -71 -11 -51 -38 -67 -30 -71 37 -2 45 2 61 23 92 14 21 25 41
25 45 1 12 73 62 90 62 9 0 22 6 29 13 8 8 44 12 104 12 77 0 98 -3 121 -20
16 -11 47 -31 70 -46 27 -16 45 -38 55 -62 17 -45 12 -52 -23 -36 -24 11 -30
10 -59 -19 -35 -34 -47 -33 -48 2 0 13 -10 0 -25 -33 -13 -30 -32 -60 -42 -67
-16 -13 -16 -13 1 -14 49 -1 109 44 139 104 l15 28 14 -33 c8 -21 13 -61 12
-103 -2 -59 -1 -67 12 -56 22 18 45 105 45 169 0 74 -24 123 -69 137 -18 6
-38 19 -43 28 -28 51 -177 72 -279 40z"/>
<path d="M1841 1930 c-24 -5 -61 -21 -81 -34 -57 -37 -76 -75 -104 -198 -8
-37 8 -36 24 1 15 38 111 129 173 165 l47 28 55 -27 c105 -51 197 -153 226
-252 14 -51 24 -48 33 8 14 89 -16 168 -48 124 -12 -16 -13 -16 -30 0 -9 9
-14 25 -11 34 4 12 -3 21 -20 29 -28 13 -25 32 5 32 14 0 17 5 13 21 -14 51
-176 91 -282 69z m212 -54 c9 -7 17 -16 17 -20 0 -12 -25 -5 -50 14 -23 18
-23 20 -5 19 11 0 28 -6 38 -13z"/>
<path d="M1131 1777 c-13 -17 -4 -50 13 -44 15 5 20 37 9 48 -6 6 -14 4 -22
-4z"/>
<path d="M1337 1774 c-15 -15 -7 -45 11 -42 9 2 17 12 17 22 0 20 -16 31 -28
20z"/>
<path d="M2044 1725 c-17 -12 -16 -13 8 -8 20 4 29 0 38 -17 6 -12 14 -19 17
-17 7 8 -15 44 -31 50 -8 3 -22 0 -32 -8z"/>
<path d="M1204 1703 c20 -3 25 -7 16 -13 -7 -4 -9 -13 -6 -19 12 -19 26 -12
26 14 0 22 -4 25 -32 24 l-33 -2 29 -4z"/>
<path d="M1078 1693 c-36 -9 -17 -22 32 -21 43 0 49 2 39 14 -11 14 -37 16
-71 7z"/>
<path d="M1794 1635 c-7 -18 3 -35 22 -35 15 0 17 9 8 34 -8 20 -23 21 -30 1z"/>
<path d="M1384 1619 c-14 -23 -55 -48 -97 -60 -44 -12 -43 -25 2 -23 49 2 51
3 51 19 0 12 4 13 19 5 11 -5 39 -10 62 -10 l42 0 -24 23 c-13 13 -29 32 -35
42 -9 17 -12 17 -20 4z"/>
<path d="M2023 1604 c-8 -23 14 -42 30 -25 10 11 9 14 -1 18 -6 3 -10 9 -6 14
3 5 0 9 -6 9 -6 0 -13 -7 -17 -16z"/>
<path d="M1740 1558 c0 -5 21 -8 48 -8 26 0 105 -9 177 -19 71 -11 131 -18
133 -16 2 1 -32 11 -75 20 -84 19 -283 35 -283 23z"/>
<path d="M970 1520 c-30 -32 -40 -67 -40 -141 0 -73 16 -59 23 19 7 81 22 119
56 137 21 11 22 14 8 15 -11 0 -31 -13 -47 -30z"/>
<path d="M1230 1523 c6 -16 16 -64 23 -108 13 -79 13 -80 -12 -118 -21 -32
-22 -40 -10 -48 27 -17 40 -11 33 17 -5 18 -3 25 4 20 19 -11 22 11 12 66 -30
149 -42 198 -50 198 -5 0 -5 -12 0 -27z"/>
<path d="M1637 1499 c-4 -29 -15 -70 -26 -91 l-19 -39 33 -16 c28 -13 32 -19
24 -34 -18 -35 -9 -32 29 8 38 42 88 63 150 63 43 0 41 13 -5 29 -21 7 -60 37
-88 66 -27 29 -59 55 -71 59 -19 6 -22 2 -27 -45z m77 -46 l35 -38 -37 -22
c-58 -36 -66 -32 -58 29 7 49 13 68 21 68 2 0 20 -17 39 -37z"/>
<path d="M1760 1526 c0 -11 104 -36 113 -27 5 5 -9 12 -35 16 -23 3 -51 9 -60
11 -10 3 -18 3 -18 0z"/>
<path d="M1310 1495 c0 -25 28 -174 36 -186 12 -20 26 -8 20 19 -4 15 -12 54
-19 87 -7 33 -18 69 -25 80 -11 20 -11 20 -12 0z"/>
<path d="M2089 1434 c-26 -18 -56 -28 -105 -33 l-69 -8 47 -12 c26 -7 53 -20
61 -30 22 -24 30 -213 10 -240 -21 -30 6 -28 35 2 18 19 22 35 22 95 0 70 1
72 28 78 15 4 35 11 44 16 17 8 17 11 2 33 -11 17 -15 41 -12 75 4 59 -8 64
-63 24z m31 -85 c0 -19 -6 -30 -21 -34 -11 -4 -22 -5 -23 -3 -1 1 -7 15 -14
30 -10 24 -9 29 10 42 28 20 48 5 48 -35z"/>
<path d="M1862 1435 c30 -14 47 -15 90 -7 l53 10 -65 1 c-36 1 -76 4 -90 7
-15 3 -11 -2 12 -11z"/>
<path d="M1151 1341 c1 -26 -1 -53 -6 -61 -6 -10 -4 -12 9 -7 10 4 23 7 29 7
9 0 8 3 0 8 -10 6 -10 17 -3 42 13 46 13 47 -11 53 -19 5 -20 2 -18 -42z"/>
<path d="M1830 1362 c0 -5 14 -15 31 -22 26 -11 35 -10 62 3 l32 16 -41 -5
c-23 -4 -51 -1 -63 5 -11 7 -21 8 -21 3z"/>
<path d="M786 1301 c-15 -16 -15 -27 -6 -87 6 -38 18 -96 26 -129 21 -83 74
-125 74 -59 0 14 14 58 32 97 24 56 31 84 29 127 -1 30 -8 58 -14 62 -7 4 -37
8 -68 8 -42 0 -60 -5 -73 -19z m85 -33 c0 -33 0 -33 11 -8 l11 25 5 -24 c2
-13 -1 -27 -8 -31 -8 -5 -8 -14 0 -34 7 -21 6 -34 -5 -56 -8 -16 -15 -36 -15
-45 0 -26 -18 -16 -29 17 -16 45 -25 132 -17 162 4 17 13 26 26 26 16 0 20 -7
21 -32z"/>
<path d="M1457 1286 c-4 -9 0 -15 11 -15 9 0 31 -2 47 -6 l30 -5 -30 11 c-16
7 -35 16 -41 21 -8 5 -14 3 -17 -6z"/>
<path d="M1708 1261 c16 -10 12 -46 -5 -46 -16 0 -53 -50 -53 -73 0 -32 33
-54 77 -50 31 2 38 7 37 23 -1 11 -5 50 -9 88 -6 64 -8 67 -33 67 -19 0 -23
-3 -14 -9z m42 -108 c0 -37 -10 -46 -44 -37 -22 5 -24 9 -15 32 6 15 18 35 26
45 20 22 33 7 33 -40z"/>
<path d="M1507 1230 c-4 -14 -7 -35 -7 -48 0 -19 -4 -22 -20 -18 -11 3 -30 9
-41 12 -15 4 -20 2 -17 -7 3 -9 20 -14 43 -14 36 0 39 3 47 33 11 41 6 80 -5
42z"/>
<path d="M1276 1209 c-3 -18 -6 -42 -6 -54 0 -18 -4 -22 -20 -18 -33 9 -23 -3
26 -32 51 -30 67 -28 34 5 -19 19 -21 29 -16 70 7 54 -8 78 -18 29z"/>
<path d="M975 1161 c3 -6 38 -11 77 -11 39 0 69 2 67 4 -2 2 -37 7 -78 10 -51
5 -71 4 -66 -3z"/>
<path d="M1933 1101 c-21 -38 -48 -75 -60 -82 -12 -6 -25 -19 -28 -27 -4 -12
-2 -12 17 2 38 27 50 30 70 17 11 -7 22 -10 25 -7 3 3 -6 11 -21 17 l-26 12
35 65 c19 36 33 68 31 70 -3 2 -22 -28 -43 -67z"/>
<path d="M1559 1123 c10 -16 22 -49 26 -75 3 -26 15 -57 26 -70 l21 -23 -16
24 c-8 14 -18 51 -22 83 -6 56 -23 88 -45 88 -5 0 -1 -12 10 -27z"/>
<path d="M1150 1075 c1 -5 16 -32 35 -60 l34 -50 -36 -13 c-20 -7 -90 -17
-154 -24 -65 -6 -116 -15 -113 -20 3 -4 -2 -15 -10 -24 -20 -20 -21 -78 -1
-98 19 -19 73 -34 148 -43 l57 -6 0 -62 c0 -47 4 -64 15 -69 10 -3 15 -19 15
-46 0 -54 20 -52 22 3 l1 42 7 -45 7 -45 1 43 c1 28 7 45 17 48 10 4 15 19 14
43 l-2 36 -10 -38 c-12 -43 -40 -48 -45 -7 -2 14 -9 31 -14 38 -7 8 -7 12 1
12 6 0 11 10 11 23 0 27 -46 49 -135 66 -65 12 -110 41 -65 41 23 1 23 2 -6
14 -18 8 -35 20 -39 28 -5 7 -5 10 0 6 4 -4 13 -1 20 8 10 15 17 14 66 -10 30
-15 45 -20 35 -11 -30 23 -9 36 83 50 65 11 98 23 163 61 65 37 85 44 97 35 9
-6 26 -15 38 -20 35 -16 36 -30 6 -53 -58 -45 -133 -124 -133 -140 0 -13 -8
-18 -28 -18 -29 0 -62 -26 -62 -48 0 -7 -4 -12 -10 -12 -5 0 -10 -4 -10 -10 0
-5 9 -10 20 -10 14 0 20 7 20 24 0 22 5 24 65 31 64 6 91 25 38 25 l-27 0 35
36 c18 20 63 59 99 87 36 28 69 54 73 58 8 6 -143 99 -160 99 -4 -1 -24 -14
-43 -30 -19 -17 -40 -30 -46 -30 -7 0 -31 21 -53 48 -23 26 -41 43 -41 37z"/>
<path d="M1987 1041 c-9 -21 -21 -42 -27 -46 -5 -3 -10 -31 -10 -61 0 -34 4
-53 10 -49 6 3 10 25 10 49 0 50 8 62 26 38 12 -14 12 -12 3 16 -9 25 -9 40 0
59 7 14 10 27 8 30 -3 2 -12 -14 -20 -36z"/>
<path d="M1735 1001 c-3 -10 -1 -29 4 -42 9 -21 10 -19 10 19 1 45 -4 54 -14
23z"/>
<path d="M1865 970 c-4 -6 -13 -9 -21 -6 -10 4 -14 -4 -14 -32 l0 -37 26 38
c14 21 24 41 21 43 -3 3 -8 0 -12 -6z"/>
<path d="M2032 906 c14 -29 26 -42 35 -39 8 3 11 13 8 24 -7 22 3 24 28 4 18
-13 18 -14 0 -26 -13 -7 -18 -20 -16 -34 4 -19 -3 -23 -56 -38 -33 -9 -69 -17
-80 -17 -10 0 -24 -7 -31 -15 -18 -22 -27 -19 -39 17 -12 35 -13 33 32 62 29
19 32 25 26 51 l-7 30 -1 -27 c0 -16 -6 -28 -12 -28 -6 0 -8 12 -5 33 6 31 2
27 -16 -22 -6 -16 -12 -20 -21 -13 -22 17 -118 34 -158 28 -27 -4 -38 -3 -34
4 11 18 -18 38 -42 29 -26 -10 -43 -39 -43 -74 0 -39 16 -62 53 -74 29 -10 35
-18 47 -69 12 -45 19 -58 37 -60 35 -5 53 33 43 88 -5 25 -9 50 -10 55 0 6 -5
3 -10 -5 -5 -8 -10 -13 -11 -10 -9 46 -6 56 15 72 19 14 30 15 66 6 40 -10 41
-12 24 -25 -14 -10 -16 -16 -7 -21 7 -4 19 -24 28 -44 11 -29 12 -43 4 -65
l-11 -28 -16 23 c-10 13 -27 35 -39 50 l-23 27 14 -40 c26 -76 38 -95 61 -95
31 0 47 22 53 75 l5 45 46 0 c98 0 161 35 161 89 0 55 -22 78 -92 95 l-28 6
22 -44z m-359 -38 l-2 -26 35 20 35 20 -7 -39 c-4 -28 -1 -50 10 -71 9 -17 16
-40 16 -52 0 -27 -27 -26 -35 3 -15 48 -37 85 -49 81 -17 -7 -51 32 -36 41 8
5 6 11 -6 19 -22 16 -9 38 19 34 17 -2 22 -9 20 -30z"/>
<path d="M1495 694 c-42 -132 -54 -182 -48 -198 9 -18 10 -17 10 9 0 17 23
104 52 194 28 90 49 166 47 168 -2 3 -30 -75 -61 -173z"/>
<path d="M1980 837 c-45 -9 -50 -12 -26 -15 37 -5 93 6 101 18 7 12 -2 11 -75
-3z"/>
<path d="M1354 650 c0 -63 1 -89 3 -57 2 31 2 83 0 115 -2 31 -3 5 -3 -58z"/>
<path d="M1810 650 c0 -11 7 -23 16 -27 8 -3 13 -12 10 -20 -3 -8 -1 -23 5
-34 8 -17 4 -26 -26 -56 -31 -31 -39 -34 -70 -29 -40 8 -55 -11 -55 -68 0 -32
3 -36 27 -36 34 0 91 59 127 131 17 36 26 46 26 31 0 -12 5 -22 10 -22 6 0 10
10 10 23 0 23 -15 49 -57 100 -21 26 -23 27 -23 7z"/>
<path d="M1940 640 c0 -13 37 -50 50 -50 6 0 -2 14 -17 30 -29 33 -33 35 -33
20z"/>
<path d="M1715 600 c2 -14 5 -36 5 -50 1 -21 2 -23 11 -8 7 12 5 27 -6 50 -12
26 -14 27 -10 8z"/>
<path d="M1995 555 c-22 -52 -48 -75 -86 -75 -21 0 -39 5 -42 13 -2 6 -2 -15
1 -48 4 -49 9 -64 31 -82 31 -26 41 -28 41 -8 0 10 -6 12 -17 8 -12 -5 -7 6
13 29 34 39 77 141 71 167 -3 13 -5 12 -12 -4z"/>
<path d="M1040 480 c-88 -38 -100 -47 -100 -70 0 -18 5 -20 43 -14 33 5 53 17
97 60 61 60 54 65 -40 24z"/>
<path d="M1137 460 c-39 -52 -62 -99 -52 -108 7 -8 85 47 85 60 0 9 -3 9 -12
0 -16 -16 -38 -15 -38 1 1 15 56 77 70 77 6 0 38 -9 71 -20 34 -12 63 -19 66
-17 5 5 -122 57 -140 57 -7 0 -30 -23 -50 -50z"/>
<path d="M1356 498 c-9 -29 -15 -125 -9 -146 3 -13 12 -22 22 -21 9 1 36 -8
61 -19 53 -25 83 -28 99 -8 17 20 -35 56 -71 49 -18 -3 -40 2 -62 17 l-36 21
7 60 c3 32 3 59 -1 59 -4 0 -8 -6 -10 -12z"/>
<path d="M2000 476 c0 -3 10 -14 22 -26 l22 -20 -22 0 c-11 0 -24 -4 -27 -10
-4 -6 12 -10 39 -10 38 0 46 3 46 19 0 10 -6 23 -13 29 -14 12 -67 27 -67 18z"/>
<path d="M1632 418 c-2 -32 0 -38 18 -38 18 0 19 2 8 20 -10 16 -10 24 -1 39
11 17 10 20 -5 18 -12 -1 -18 -11 -20 -39z"/>
<path d="M1464 439 c-3 -5 -15 -7 -26 -3 l-21 6 19 -33 c14 -24 29 -35 48 -37
47 -6 55 14 18 47 -17 16 -34 25 -38 20z"/>
<path d="M1220 399 c25 -4 59 -7 75 -7 29 0 29 0 5 8 -14 4 -47 8 -75 8 l-50
-1 45 -8z"/>
</g>
</svg>
